<svg width="19" height="16" viewBox="0 0 19 16" fill="none" xmlns="http://www.w3.org/2000/svg">
<path d="M10.4291 6.76545C10.3389 6.76359 10.2493 6.78041 10.1659 6.81484C10.0825 6.84927 10.0072 6.90057 9.94456 6.96551C9.88194 7.03046 9.83342 7.10765 9.80205 7.19225C9.77069 7.27684 9.75715 7.367 9.76229 7.45708C9.76229 7.63773 9.83405 7.81098 9.96179 7.93873C10.0895 8.06647 10.2628 8.13823 10.4434 8.13823C10.6241 8.13823 10.7973 8.06647 10.9251 7.93873C11.0528 7.81098 11.1246 7.63773 11.1246 7.45708C11.1293 7.36469 11.1145 7.27234 11.0811 7.18605C11.0478 7.09976 10.9966 7.02145 10.931 6.95621C10.8655 6.89098 10.7869 6.84028 10.7004 6.80741C10.6139 6.77455 10.5215 6.76025 10.4291 6.76545Z" fill="white"/>
<path d="M17.1605 1.92399C16.8417 1.60418 16.4627 1.35064 16.0455 1.17798C15.6282 1.00532 15.1809 0.916954 14.7294 0.917978H4.10363C3.65215 0.917602 3.20503 1.00625 2.78785 1.17885C2.37067 1.35146 1.99162 1.60462 1.67238 1.92387C1.35314 2.24312 1.09997 2.62218 0.927375 3.03937C0.754777 3.45656 0.666129 3.90369 0.666505 4.35518V9.46906C0.666129 9.92054 0.754777 10.3677 0.927375 10.7849C1.09997 11.2021 1.35314 11.5811 1.67238 11.9004C1.99162 12.2196 2.37067 12.4728 2.78785 12.6454C3.20503 12.818 3.65215 12.9066 4.10363 12.9063H8.02279L9.15452 15.2079C9.17291 15.2628 9.2081 15.3106 9.25511 15.3444C9.30212 15.3782 9.35858 15.3965 9.4165 15.3965C9.47442 15.3965 9.53088 15.3782 9.57789 15.3444C9.6249 15.3106 9.66009 15.2628 9.67848 15.2079L10.8102 12.9024H14.7294C15.1805 12.9028 15.6273 12.8143 16.0443 12.6419C16.4612 12.4696 16.8401 12.2167 17.1593 11.8979C17.4785 11.5791 17.7317 11.2004 17.9045 10.7837C18.0774 10.3669 18.1664 9.92022 18.1665 9.46906V4.35518C18.1675 3.9036 18.0792 3.45629 17.9065 3.03903C17.7338 2.62177 17.4803 2.2428 17.1605 1.92399ZM4.52279 9.11086C4.34774 9.11835 4.17356 9.08223 4.01593 9.00574C3.85829 8.92925 3.72213 8.81478 3.61969 8.67263H3.60064V9.00797H2.53177V4.50189H3.61969V6.21667C3.73583 6.08803 3.8783 5.98588 4.03741 5.91717C4.19653 5.84846 4.36857 5.8148 4.54184 5.81846C4.74829 5.82507 4.95131 5.87308 5.13886 5.95965C5.3264 6.04621 5.49465 6.16957 5.63361 6.3224C5.77257 6.47522 5.87942 6.65441 5.94782 6.84932C6.01621 7.04422 6.04476 7.25089 6.03177 7.45704C6.04383 7.6653 6.01412 7.87386 5.94437 8.07047C5.87463 8.26707 5.76627 8.44773 5.62566 8.60183C5.48506 8.75593 5.31505 8.88035 5.12565 8.96777C4.93625 9.05519 4.73127 9.10384 4.52279 9.11086ZM7.93896 9.00606H6.89105V6.40911C6.89105 5.92707 6.80722 5.50789 6.38806 5.44502V4.39709C7.31021 4.39709 7.93896 5.06396 7.93896 6.19953V9.00606ZM10.4539 9.0899C10.2254 9.11049 9.99514 9.08326 9.77774 9.00994C9.56034 8.93662 9.3606 8.81881 9.19125 8.66403C9.02189 8.50925 8.88664 8.32089 8.7941 8.11095C8.70156 7.901 8.65377 7.67409 8.65377 7.44465C8.65377 7.21522 8.70156 6.9883 8.7941 6.77836C8.88664 6.56842 9.02189 6.38006 9.19125 6.22528C9.3606 6.07049 9.56034 5.95269 9.77774 5.87937C9.99514 5.80605 10.2254 5.77881 10.4539 5.79941C10.6825 5.7829 10.9121 5.8133 11.1286 5.88876C11.345 5.96422 11.5437 6.08313 11.7125 6.2382C11.8813 6.39326 12.0166 6.58121 12.1102 6.79048C12.2037 6.99975 12.2534 7.22593 12.2563 7.45513C12.255 7.68401 12.2062 7.91011 12.1129 8.11913C12.0197 8.32815 11.8841 8.51553 11.7146 8.66939C11.5452 8.82325 11.3456 8.94024 11.1286 9.01295C10.9116 9.08567 10.6819 9.11252 10.4539 9.0918V9.0899ZM16.2384 8.7336C16.2384 10.033 15.5887 10.6827 14.4569 10.6827H14.2473V9.6996H14.4569C15.0228 9.6996 15.1904 9.34331 15.1904 8.81934V8.67263C15.0726 8.80621 14.9274 8.91281 14.7646 8.98515C14.6019 9.05748 14.4254 9.09386 14.2473 9.0918C14.0463 9.08983 13.8477 9.04703 13.6637 8.96598C13.4797 8.88494 13.314 8.76736 13.1768 8.62036C13.0397 8.47336 12.9338 8.30002 12.8656 8.11085C12.7974 7.92168 12.7684 7.72064 12.7803 7.51991C12.7663 7.30839 12.7953 7.09624 12.8654 6.89618C12.9355 6.69612 13.0452 6.51228 13.1881 6.35569C13.331 6.1991 13.504 6.073 13.6969 5.98494C13.8897 5.89687 14.0983 5.84868 14.3102 5.84323C14.4808 5.83004 14.6518 5.86181 14.8063 5.93536C14.9607 6.00891 15.0932 6.12167 15.1904 6.2624H15.2114V5.92707L16.2384 5.94802V8.7336Z" fill="white"/>
<path d="M14.5618 6.744C14.4697 6.73936 14.3777 6.75407 14.2917 6.78718C14.2057 6.82029 14.1276 6.87108 14.0624 6.93625C13.9972 7.00143 13.9465 7.07954 13.9133 7.16556C13.8802 7.25158 13.8655 7.34358 13.8702 7.43563C13.8638 7.5281 13.8774 7.62084 13.9099 7.70763C13.9424 7.79442 13.9931 7.87324 14.0587 7.93877C14.1242 8.0043 14.203 8.05503 14.2898 8.08755C14.3766 8.12006 14.4693 8.13361 14.5618 8.12727C14.6529 8.13263 14.7441 8.11821 14.8291 8.08499C14.9141 8.05178 14.991 8.00056 15.0543 7.93486C15.1177 7.86915 15.1661 7.79051 15.1961 7.70433C15.2262 7.61816 15.2373 7.5265 15.2286 7.43563C15.2356 7.34515 15.2233 7.25422 15.1925 7.16884C15.1618 7.08345 15.1134 7.00552 15.0504 6.9402C14.9874 6.87487 14.9113 6.82361 14.8271 6.7898C14.7429 6.75598 14.6525 6.74038 14.5618 6.744Z" fill="white"/>
<path d="M4.27121 8.14913C4.65317 8.14913 4.96282 7.83948 4.96282 7.4575C4.96282 7.07552 4.65317 6.76587 4.27121 6.76587C3.88924 6.76587 3.57959 7.07552 3.57959 7.4575C3.57959 7.83948 3.88924 8.14913 4.27121 8.14913Z" fill="white"/>
</svg>
