<svg width="current" height="current" viewBox="0 0 16 16" fill="none" xmlns="http://www.w3.org/2000/svg">
<path d="M14.625 15.4994C12.8333 15.4994 11.0869 15.1 9.38583 14.3011C7.68472 13.5023 6.17778 12.4468 4.865 11.1346C3.55222 9.82242 2.49667 8.31554 1.69833 6.61393C0.9 4.91233 0.500556 3.16601 0.5 1.37497C0.5 1.12498 0.583333 0.916651 0.75 0.74999C0.916667 0.58333 1.125 0.5 1.375 0.5H4.75C4.94445 0.5 5.11806 0.562498 5.27083 0.687493C5.42361 0.812488 5.51389 0.972204 5.54167 1.16664L6.08333 4.0832C6.11111 4.27763 6.1075 4.45485 6.0725 4.61484C6.0375 4.77484 5.95778 4.91705 5.83333 5.04149L3.83333 7.08308C4.41667 8.08305 5.14583 9.02051 6.02083 9.89548C6.89583 10.7704 7.86111 11.5274 8.91667 12.1662L10.875 10.208C11 10.083 11.1633 9.98936 11.365 9.92714C11.5667 9.86492 11.7644 9.84742 11.9583 9.87464L14.8333 10.458C15.0278 10.4996 15.1875 10.5935 15.3125 10.7396C15.4375 10.8857 15.5 11.0557 15.5 11.2496V14.6245C15.5 14.8745 15.4167 15.0828 15.25 15.2494C15.0833 15.4161 14.875 15.4994 14.625 15.4994Z" fill="white"/>
</svg>
