<svg width="16" height="16" viewBox="0 0 16 16" fill="none" xmlns="http://www.w3.org/2000/svg">
<path d="M7.9998 5.33261C6.53084 5.33261 5.33205 6.53146 5.33205 8.00049C5.33205 9.46953 6.53084 10.6684 7.9998 10.6684C9.46877 10.6684 10.6676 9.46953 10.6676 8.00049C10.6676 6.53146 9.46877 5.33261 7.9998 5.33261ZM16.0011 8.00049C16.0011 6.89571 16.0111 5.80094 15.949 4.69816C15.887 3.41725 15.5948 2.28045 14.6582 1.34379C13.7196 0.405125 12.5848 0.11492 11.304 0.0528762C10.1992 -0.00916765 9.10453 0.00083945 8.0018 0.00083945C6.89708 0.00083945 5.80236 -0.00916765 4.69964 0.0528762C3.41879 0.11492 2.28205 0.407127 1.34543 1.34379C0.406814 2.28245 0.116623 3.41725 0.0545826 4.69816C-0.0074582 5.80294 0.0025484 6.89771 0.0025484 8.00049C0.0025484 9.10327 -0.0074582 10.2 0.0545826 11.3028C0.116623 12.5837 0.408815 13.7205 1.34543 14.6572C2.28405 15.5959 3.41879 15.8861 4.69964 15.9481C5.80436 16.0102 6.89908 16.0001 8.0018 16.0001C9.10653 16.0001 10.2012 16.0102 11.304 15.9481C12.5848 15.8861 13.7216 15.5939 14.6582 14.6572C15.5968 13.7185 15.887 12.5837 15.949 11.3028C16.0131 10.2 16.0011 9.10528 16.0011 8.00049ZM7.9998 12.1054C5.72831 12.1054 3.89511 10.2721 3.89511 8.00049C3.89511 5.72889 5.72831 3.89559 7.9998 3.89559C10.2713 3.89559 12.1045 5.72889 12.1045 8.00049C12.1045 10.2721 10.2713 12.1054 7.9998 12.1054ZM12.2726 4.68615C11.7423 4.68615 11.314 4.25785 11.314 3.72747C11.314 3.1971 11.7423 2.7688 12.2726 2.7688C12.803 2.7688 13.2312 3.1971 13.2312 3.72747C13.2314 3.85341 13.2067 3.97815 13.1586 4.09453C13.1105 4.21091 13.0399 4.31666 12.9508 4.40571C12.8618 4.49477 12.756 4.56538 12.6397 4.6135C12.5233 4.66162 12.3985 4.68631 12.2726 4.68615Z" fill="white"/>
</svg>
