<svg width="9" height="3" viewBox="0 0 9 3" fill="none" xmlns="http://www.w3.org/2000/svg">
<path d="M0.998522 0.751465C0.448529 0.751465 -0.00146484 1.20146 -0.00146484 1.75145C-0.00146484 2.30144 0.448529 2.75144 0.998522 2.75144C1.54851 2.75144 1.99851 2.30144 1.99851 1.75145C1.99851 1.20146 1.54851 0.751465 0.998522 0.751465ZM7.99843 0.751465C7.44843 0.751465 6.99844 1.20146 6.99844 1.75145C6.99844 2.30144 7.44843 2.75144 7.99843 2.75144C8.54842 2.75144 8.99841 2.30144 8.99841 1.75145C8.99841 1.20146 8.54842 0.751465 7.99843 0.751465ZM4.49847 0.751465C3.94848 0.751465 3.49849 1.20146 3.49849 1.75145C3.49849 2.30144 3.94848 2.75144 4.49847 2.75144C5.04847 2.75144 5.49846 2.30144 5.49846 1.75145C5.49846 1.20146 5.04847 0.751465 4.49847 0.751465Z" fill="#557AFF"/>
</svg>
