<svg width="18" height="15" viewBox="0 0 18 15" fill="none" xmlns="http://www.w3.org/2000/svg">
<path fill-rule="evenodd" clip-rule="evenodd" d="M1.97924 6.27938C6.45316 4.33014 9.43647 3.04508 10.9292 2.4242C15.1912 0.651471 16.0768 0.343529 16.654 0.33336C16.7809 0.331124 17.0648 0.362588 17.2487 0.51179C17.4039 0.637775 17.4466 0.807961 17.4671 0.927408C17.4875 1.04685 17.513 1.31896 17.4928 1.53157C17.2618 3.9583 16.2624 9.84734 15.754 12.5653C15.5389 13.7154 15.1153 14.101 14.7052 14.1388C13.814 14.2208 13.1372 13.5498 12.2741 12.9839C10.9233 12.0985 10.1603 11.5473 8.84915 10.6833C7.33394 9.68479 8.31619 9.13599 9.1797 8.23909C9.40569 8.00437 13.3324 4.43265 13.4084 4.10864C13.4179 4.06811 13.4268 3.91706 13.337 3.8373C13.2473 3.75754 13.1148 3.78482 13.0193 3.80651C12.8838 3.83726 10.726 5.2635 6.54588 8.08524C5.9334 8.50582 5.37863 8.71074 4.88158 8.70001C4.33362 8.68817 3.27956 8.39017 2.49598 8.13546C1.53488 7.82304 0.771019 7.65786 0.837534 7.12728C0.872179 6.85092 1.25275 6.56828 1.97924 6.27938Z" fill="white"/>
</svg>
