<svg width="16" height="18" viewBox="0 0 16 18" fill="none" xmlns="http://www.w3.org/2000/svg">
<path d="M11.9458 8.39143C11.874 8.35702 11.8011 8.3239 11.7272 8.29219C11.5986 5.9218 10.3033 4.56475 8.12851 4.55086C8.11866 4.5508 8.10886 4.5508 8.09901 4.5508C6.79818 4.5508 5.71629 5.10606 5.0504 6.11646L6.24649 6.93696C6.74394 6.18223 7.52463 6.02133 8.09958 6.02133C8.10622 6.02133 8.11289 6.02133 8.11946 6.02139C8.83555 6.02596 9.37591 6.23416 9.72565 6.64019C9.98016 6.93578 10.1504 7.34426 10.2347 7.85979C9.59978 7.75188 8.91315 7.7187 8.17913 7.76078C6.1114 7.87989 4.7821 9.08584 4.87137 10.7615C4.91668 11.6115 5.34013 12.3428 6.06368 12.8205C6.67543 13.2243 7.46333 13.4218 8.28219 13.3771C9.36359 13.3178 10.2119 12.9052 10.8038 12.1508C11.2533 11.5779 11.5375 10.8354 11.6631 9.89991C12.1784 10.2109 12.5604 10.6202 12.7713 11.1122C13.13 11.9486 13.1509 13.323 12.0295 14.4435C11.0469 15.4251 9.86584 15.8497 8.08091 15.8628C6.10094 15.8482 4.60351 15.2132 3.62993 13.9755C2.71825 12.8166 2.24708 11.1426 2.22951 9.00008C2.24708 6.85753 2.71825 5.18355 3.62993 4.02462C4.60351 2.78697 6.10091 2.15199 8.08088 2.13728C10.0752 2.1521 11.5987 2.79013 12.6096 4.03376C13.1052 4.64362 13.4789 5.41057 13.7253 6.30479L15.1269 5.93083C14.8283 4.83013 14.3585 3.88165 13.719 3.09505C12.4231 1.50066 10.5278 0.683688 8.08577 0.666748H8.07599C5.63891 0.683629 3.76482 1.50371 2.50582 3.10419C1.38547 4.52841 0.807565 6.51012 0.788147 8.99422L0.788086 9.00008L0.788147 9.00594C0.807565 11.49 1.38547 13.4718 2.50582 14.896C3.76482 16.4964 5.63891 17.3166 8.07599 17.3334H8.08577C10.2525 17.3184 11.7797 16.7511 13.0379 15.4941C14.684 13.8496 14.6344 11.7882 14.0919 10.5227C13.7026 9.61527 12.9605 8.87822 11.9458 8.39143ZM8.20478 11.9087C7.29853 11.9597 6.35703 11.5529 6.31061 10.6817C6.2762 10.0357 6.77035 9.31484 8.26039 9.22897C8.43104 9.21913 8.59848 9.21432 8.76298 9.21432C9.30421 9.21432 9.81055 9.2669 10.2709 9.36753C10.0992 11.5118 9.09206 11.86 8.20478 11.9087Z" fill="white"/>
</svg>
